<?xml version="1.0" encoding="UTF-8" standalone="no"?>
<svg
   xmlns:dc="http://purl.org/dc/elements/1.1/"
   xmlns:cc="http://creativecommons.org/ns#"
   xmlns:rdf="http://www.w3.org/1999/02/22-rdf-syntax-ns#"
   xmlns:svg="http://www.w3.org/2000/svg"
   xmlns="http://www.w3.org/2000/svg"
   xmlns:sodipodi="http://sodipodi.sourceforge.net/DTD/sodipodi-0.dtd"
   xmlns:inkscape="http://www.inkscape.org/namespaces/inkscape"
   width="400"
   height="400"
   viewBox="0 0 105.83334 105.83333"
   version="1.1"
   id="svg8"
   inkscape:version="1.0.2 (394de47547, 2021-03-26)"
   sodipodi:docname="img-placeholder.svg">
  <defs
     id="defs2" />
  <sodipodi:namedview
     id="base"
     pagecolor="#ffffff"
     bordercolor="#666666"
     borderopacity="1.0"
     inkscape:pageopacity="0.0"
     inkscape:pageshadow="2"
     inkscape:zoom="1.4339158"
     inkscape:cx="304.35792"
     inkscape:cy="248.72882"
     inkscape:document-units="mm"
     inkscape:current-layer="layer1"
     inkscape:document-rotation="0"
     showgrid="false"
     units="px"
     inkscape:window-width="1920"
     inkscape:window-height="1016"
     inkscape:window-x="0"
     inkscape:window-y="27"
     inkscape:window-maximized="1" />
  <metadata
     id="metadata5">
    <rdf:RDF>
      <cc:Work
         rdf:about="">
        <dc:format>image/svg+xml</dc:format>
        <dc:type
           rdf:resource="http://purl.org/dc/dcmitype/StillImage" />
        <dc:title></dc:title>
      </cc:Work>
    </rdf:RDF>
  </metadata>
  <g
     inkscape:label="Layer 1"
     inkscape:groupmode="layer"
     id="layer1">
    <path
       style="fill:#000000;stroke-width:0.247433"
       d="M 15.906673,105.66082 C 11.633049,105.27261 8.1179061,103.54717 4.9215,100.26867 2.9095981,98.205076 1.877994,96.493037 0.79556032,93.421314 L 0.09897562,91.444555 0.02756364,53.93971 C -0.04646554,15.04835 -0.04188546,14.845673 0.97802547,11.815007 1.3960754,10.57281 2.8235392,7.8657594 3.5475203,6.9422097 5.5384379,4.402468 8.9319186,1.9452857 11.770386,0.98811937 14.840709,-0.0472334 14.957277,-0.04988128 53.888717,0.03132262 95.912186,0.11897407 91.944239,-0.06429119 96.083322,1.980176 c 2.123459,1.0488655 4.908718,3.3001192 4.633798,3.745386 -0.0898,0.145553 -0.0517,0.1955289 0.0849,0.1110574 0.56984,-0.3525355 2.80774,3.0498986 3.80485,5.7847896 0.38579,1.058116 0.81738,2.849586 0.95911,3.981048 0.36129,2.88416 0.35416,72.265207 -0.008,74.869387 -0.83276,5.993283 -4.66235,11.153186 -10.188476,13.727706 -3.685887,1.7172 -0.569332,1.59281 -40.862789,1.63091 -19.994945,0.0189 -37.365088,-0.0574 -38.600319,-0.16964 z M 91.216612,100.576 c 4.656606,-1.145993 8.174468,-4.702876 9.276098,-9.379003 0.37178,-1.578095 0.40168,-5.072224 0.33468,-39.113963 l -0.0736,-37.381065 -0.59511,-1.48534 C 98.605978,9.3411881 95.926178,6.7445258 92.08453,5.3929444 90.753201,4.9245508 89.72915,4.9121123 53.178168,4.9203666 20.802497,4.9276646 15.445272,4.9793873 14.229725,5.2963173 10.421223,6.2892978 7.4560646,8.871975 5.847005,12.597737 l -0.8018519,1.856675 -0.064402,37.876179 c -0.05683,33.421708 -0.019816,38.036306 0.315082,39.237741 0.2087211,0.74886 0.4072633,1.472963 0.4412027,1.609119 0.03393,0.13616 0.4692347,0.91596 0.9673052,1.732901 1.873256,3.07247 4.975228,5.230838 8.356848,5.814738 0.612087,0.10569 17.632217,0.20526 37.822507,0.22128 33.008751,0.0262 36.87327,-0.0111 38.332926,-0.37037 z M 71.763184,83.519907 c -4.737354,-1.030391 -9.003397,-5.301884 -9.886821,-9.899437 -0.308614,-1.606128 -0.347236,-4.127521 -0.08272,-5.4028 0.995991,-4.802457 5.132681,-9.003341 9.914292,-10.068148 1.298464,-0.289155 4.170638,-0.247107 6.155611,0.09011 2.390189,0.406063 6.002607,3.090088 7.613826,5.657072 1.305297,2.079591 1.796927,3.613058 1.966625,6.134189 0.251614,3.73832 -0.898688,6.835131 -3.611858,9.723733 -1.236503,1.316457 -2.031195,1.90389 -3.585985,2.650752 -3.040477,1.460535 -5.441668,1.77601 -8.48294,1.114524 z m 5.866831,-6.000419 3.93e-4,-3.527683 h 3.593369 3.593369 l -0.06917,-3.132556 -0.06917,-3.132556 -3.462322,-0.02379 -3.462331,-0.02379 -0.06767,-3.589574 -0.06767,-3.589572 -3.078856,0.07593 -3.078857,0.07594 -0.06852,3.513631 -0.06852,3.513627 H 67.861741 64.39941 l -0.06917,3.156349 -0.06917,3.156348 h 3.593368 3.593379 v 3.424534 c 0,1.883496 0.04618,3.470952 0.102648,3.527683 0.05646,0.05674 1.447392,0.103145 3.090971,0.103145 h 2.98832 l 4.95e-4,-3.527683 z M 42.073408,78.695382 24.199016,78.571605 23.316424,77.635057 c -0.537245,-0.570085 -0.826192,-1.083664 -0.738461,-1.312531 0.08039,-0.209709 0.03814,-0.310416 -0.09551,-0.227722 -0.154004,0.09528 -0.242212,-8.300171 -0.246811,-23.491722 -0.0084,-26.294681 -0.111894,-24.682176 1.669526,-25.904131 l 0.88837,-0.609372 27.345845,-0.05962 27.345846,-0.05961 0.989243,0.555747 c 0.650578,0.36549 1.179728,0.933537 1.545677,1.6593 l 0.556443,1.10355 V 43.49164 c 0,7.81148 -0.08955,14.165555 -0.198925,14.120168 -0.109417,-0.04539 -0.945976,-0.406387 -1.859021,-0.802225 l -1.660094,-0.719707 0.06599,-13.205411 0.06599,-13.205411 -26.64757,5.3e-5 -26.64756,5.1e-5 v 22.77522 22.775218 h 17.07312 17.073128 l 0.487406,1.175895 c 0.268084,0.646742 0.643493,1.454395 0.834259,1.794787 0.337823,0.602807 0.326541,0.618891 -0.43438,0.618891 -0.429659,0 -8.824689,-0.0557 -18.655606,-0.123778 z m -12.25611,-7.59174 c -0.09067,-0.09076 -0.164874,-4.018546 -0.164874,-8.728392 v -8.563356 l 5.653249,-5.654896 5.65325,-5.654899 1.206442,0.92182 c 0.663551,0.507001 3.084484,2.43991 5.379865,4.295354 2.295381,1.855445 4.466932,3.593793 4.825664,3.862999 0.358734,0.269205 2.134378,1.689562 3.945878,3.156347 1.81149,1.466787 3.425186,2.663771 3.585975,2.659965 0.160798,-0.0038 3.550699,-2.454616 7.533113,-5.446246 3.982424,-2.991633 7.293277,-5.43933 7.357455,-5.43933 0.06422,0 0.116688,2.060909 0.116688,4.5798 v 4.579799 h -1.308241 c -4.983005,0 -10.288598,3.464633 -12.61318,8.236596 -0.94775,1.945554 -1.659057,4.683269 -1.659057,6.385436 v 0.974042 H 44.655848 c -8.070526,0 -14.747874,-0.07427 -14.83855,-0.165039 z M 58.700324,43.002979 c -2.122366,-0.450515 -3.80624,-2.646048 -3.816933,-4.97674 -0.01692,-3.692881 3.739717,-6.180506 7.042876,-4.663731 1.996732,0.916873 3.091373,2.562518 3.091373,4.647461 0,3.275366 -3.050564,5.686437 -6.317316,4.99301 z"
       id="path24" />
  </g>
</svg>
