<svg width="384" height="278" viewBox="0 0 384 278" fill="none" xmlns="http://www.w3.org/2000/svg">
<path d="M368 154.668H16C7.16797 154.668 0 147.5 0 138.668C0 129.836 7.16797 122.668 16 122.668H368C376.832 122.668 384 129.836 384 138.668C384 147.5 376.832 154.668 368 154.668Z" fill="#040A10"/>
<path d="M368 32H16C7.16797 32 0 24.832 0 16C0 7.16797 7.16797 0 16 0H368C376.832 0 384 7.16797 384 16C384 24.832 376.832 32 368 32Z" fill="#040A10"/>
<path d="M368 277.332H16C7.16797 277.332 0 270.164 0 261.332C0 252.5 7.16797 245.332 16 245.332H368C376.832 245.332 384 252.5 384 261.332C384 270.164 376.832 277.332 368 277.332Z" fill="#040A10"/>
</svg>
