<svg width="134" height="136" viewBox="0 0 134 136" fill="none" xmlns="http://www.w3.org/2000/svg">
<path d="M92.8898 80.7024C109.215 57.6496 103.755 25.7282 80.7024 9.4068C57.6496 -6.91463 25.7282 -1.45856 9.4068 21.5981C-6.91463 44.651 -1.45856 76.5684 21.5981 92.8898C38.0522 104.539 59.8063 105.436 77.1612 95.1869L114.87 132.67C118.942 136.956 125.716 137.127 130.002 133.056C134.288 128.988 134.46 122.214 130.392 117.928C130.263 117.791 130.139 117.666 130.002 117.538L92.8898 80.7024ZM51.1171 84.1968C32.9003 84.2007 18.1311 69.4431 18.1194 51.2263C18.1155 33.0095 32.873 18.2403 51.0937 18.2325C69.2871 18.2247 84.0486 32.9588 84.0837 51.1522C84.1149 69.3729 69.3651 84.1656 51.1405 84.1968C51.1327 84.1968 51.1288 84.1968 51.1171 84.1968Z" fill="#424242"/>
</svg>
