<svg width="512" height="512" viewBox="0 0 512 512" fill="none" xmlns="http://www.w3.org/2000/svg">
<path d="M3.05277e-06 256C1.36942e-06 397.163 114.837 512 256 512C397.163 512 512 397.163 512 256C512 114.837 397.163 4.73612e-06 256 3.05277e-06C114.837 1.36942e-06 4.73612e-06 114.837 3.05277e-06 256ZM271.083 176.917L377.749 283.584C381.909 287.744 384 293.205 384 298.667C384 304.128 381.909 309.59 377.749 313.75C369.408 322.091 355.925 322.091 347.584 313.75L256 222.165L164.416 313.749C156.075 322.09 142.592 322.09 134.251 313.749C125.91 305.408 125.91 291.925 134.251 283.584L240.918 176.917C249.259 168.576 262.741 168.576 271.083 176.917Z" fill="white"/>
</svg>
