<svg width="428" height="513" viewBox="0 0 428 513" fill="none" xmlns="http://www.w3.org/2000/svg">
<path d="M210.352 246.633C244.234 246.633 273.574 234.48 297.547 210.504C321.52 186.531 333.672 157.199 333.672 123.312C333.672 89.4375 321.52 60.1016 297.543 36.1211C273.566 12.1523 244.23 0 210.352 0C176.465 0 147.133 12.1523 123.16 36.125C99.1876 60.0977 87.0312 89.4336 87.0312 123.312C87.0312 157.199 99.1876 186.535 123.164 210.508C147.141 234.477 176.477 246.633 210.352 246.633Z" fill="#040A10"/>
<path d="M426.129 393.703C425.438 383.727 424.039 372.844 421.98 361.352C419.902 349.773 417.227 338.828 414.023 328.824C410.715 318.484 406.215 308.273 400.652 298.488C394.879 288.332 388.098 279.488 380.488 272.211C372.531 264.598 362.789 258.477 351.523 254.012C340.297 249.57 327.855 247.32 314.547 247.32C309.32 247.32 304.266 249.465 294.504 255.82C288.496 259.738 281.469 264.27 273.625 269.281C266.918 273.555 257.832 277.559 246.609 281.184C235.66 284.727 224.543 286.523 213.57 286.523C202.598 286.523 191.484 284.727 180.523 281.184C169.312 277.562 160.227 273.559 153.527 269.285C145.758 264.32 138.727 259.789 132.629 255.816C122.879 249.461 117.82 247.316 112.594 247.316C99.2812 247.316 86.8438 249.57 75.6211 254.016C64.3633 258.473 54.6172 264.594 46.6523 272.215C39.0469 279.496 32.2617 288.336 26.4961 298.488C20.9375 308.273 16.4375 318.48 13.125 328.828C9.92578 338.832 7.25 349.773 5.17188 361.352C3.11328 372.828 1.71484 383.715 1.02344 393.715C0.34375 403.512 0 413.68 0 423.949C0 450.676 8.49609 472.312 25.25 488.27C41.7969 504.016 63.6914 512.004 90.3164 512.004H336.848C363.473 512.004 385.359 504.02 401.91 488.27C418.668 472.324 427.164 450.684 427.164 423.945C427.16 413.629 426.813 403.453 426.129 393.703Z" fill="#040A10"/>
</svg>
